<mxfile host="app.diagrams.net" modified="2023-09-05T20:54:11.096Z" agent="Mozilla/5.0 (X11; Linux x86_64) AppleWebKit/537.36 (KHTML, like Gecko) Chrome/92.0.4515.131 Safari/537.36" version="21.6.9" etag="IP-XQtxqj1eSQnTgO0_6" type="github">
  <diagram name="Page-1" id="dICxuRk5OPdM8L4m-nRS">
    <mxGraphModel>
      <root>
        <mxCell id="0" />
        <mxCell id="1" parent="0" />
      </root>
    </mxGraphModel>
  </diagram>
</mxfile>
